<?xml version="1.0" encoding="UTF-8"?>
<svg id="Camada_1" xmlns="http://www.w3.org/2000/svg" version="1.1" viewBox="0 0 16 16">
  <!-- Generator: Adobe Illustrator 30.2.1, SVG Export Plug-In . SVG Version: 2.1.1 Build 1)  -->
  <defs>
    <style>
      .st0 {
        fill: #fff;
      }
    </style>
  </defs>
  <path class="st0" d="M15.7,5.9c0,0-.2-.2-.2-.3s.2-.4.2-.5c.1-1-.6-1.9-1.6-1.9,0-1.1-1.2-1.9-2.2-1.5-.1-1.3-1.7-1.9-2.7-1.1-.5-.8-1.8-.8-2.3,0-1-.8-2.6-.2-2.7,1.1-1.1-.4-2.2.4-2.2,1.5-1,0-1.8.9-1.6,1.9,0,.1.2.5.2.5,0,0-.2.2-.2.3-.4.7-.3,1.5.3,2.1-.6.8-.3,2,.7,2.4-.5,1.2.5,2.5,1.8,2.3,0,1.1,1.2,1.9,2.2,1.5v1.5c0,0,.1.2.2.2h.2c.1,0,.3-.2.2-.2h0v-1.3c.6.4,1.4,1,2.1,1,.7,0,1.6-.6,2.1-1v1.3h0c-.1.1,0,.2.2.3h.2s.2-.1.2-.2v-1.5c1,.4,2.2-.4,2.2-1.5,1.3.2,2.3-1.1,1.8-2.3.9-.4,1.2-1.6.7-2.4.6-.6.8-1.4.3-2.1h0ZM10.7,13.4c-.5.4-1.3.9-1.8,1.3-.7.4-1,.4-1.7,0-.6-.3-1.3-.9-1.8-1.3-1.6-1.3-1.7-2.9-1.7-4.7,0-.7-.2-2.2.2-2.8.2-.3.9-.8,1.2-.9,1.1-.3,1.4,1,2,1.6.8.8,2.1.7,3.1.9.5,0,1.2.3,1.7.5,0,0,.4.2.5.3.1.1,0,1.1,0,1.3-.1,1.5-.4,2.8-1.7,3.8h0ZM14.7,8.1c0,.1.2.2.2.3.3.5.2,1.1-.2,1.4-.2.1-.6.2-.7.4,0,.2,0,.3.2.5.4.8-.3,1.6-1.1,1.5-.2,0-.5-.2-.7,0-.2.2,0,.4,0,.6,0,.7-.6,1.2-1.2,1.1,0,0-.1,0-.1,0,0,0,.4-.4.5-.5.9-1,1.2-2.5,1.3-3.7,0-.4,0-1,0-1.4,0-.2-.2-.3-.3-.4-1.5-1-2.8-.7-4.4-1.2-1.4-.4-1.3-1.8-2.5-2.1-1.2-.3-2.6.8-2.7,2,0,1,0,2.5,0,3.4,0,.8.2,1.6.5,2.3-.2-.2-.4,0-.7,0-.9.1-1.5-.7-1.1-1.5,0-.2.2-.2.2-.4,0-.2-.5-.3-.7-.4-.5-.3-.6-1-.3-1.4.1-.2.3-.2.2-.5,0-.1-.4-.3-.5-.5-.3-.4-.3-.9,0-1.3,0-.1.3-.2.3-.4,0-.2-.2-.5-.3-.7,0-.6.3-1.1.9-1.2.2,0,.5.1.7,0,.2-.2,0-.4,0-.6,0-.7.8-1.1,1.5-.9.2,0,.4.3.6.2.2-.1,0-.4,0-.6,0-.9,1.1-1.3,1.8-.8.2.1.2.3.5.3.2,0,.2-.3.3-.5.3-.5,1.1-.5,1.4,0,0,.1,0,.4.3.5.3.1.4-.2.5-.3.7-.6,1.8-.1,1.8.8,0,.2-.1.5,0,.6.2.2.4-.1.7-.2.6-.2,1.4.2,1.5.9,0,.2-.1.5,0,.7.2.1.4,0,.7,0,.6,0,1,.6.9,1.2,0,.3-.3.5-.3.7,0,.2.3.3.4.5.3.5.1.9-.3,1.3-.2.2-.4.2-.3.5h0Z"/>
</svg>