<?xml version="1.0" encoding="UTF-8"?>
<svg id="Camada_1" xmlns="http://www.w3.org/2000/svg" version="1.1" viewBox="0 0 16 16">
  <!-- Generator: Adobe Illustrator 30.2.1, SVG Export Plug-In . SVG Version: 2.1.1 Build 1)  -->
  <defs>
    <style>
      .st0 {
        fill: #fff;
      }
    </style>
  </defs>
  <path class="st0" d="M15.2,9.4c-.1.2-.3.3-.4.5-.2.3,0,.6-.2,1-.2.3-.6.4-.8.7-.2.3-.2.6-.4.8,0,0-.4.3-.5.3,0,0-.2-.3-.3-.4-.1-.2-.3-.3-.5-.5,0,0-.6-.4-.5-.5.7-.5,1.3-1.3,1.6-2.1,1.4.3,2.5-1,1.9-2.3-.3-.6-1-1-1.7-.9-.1-.2-.3-.3-.5-.5-.4-.6-.2-1.3-1.1-1.6-1.1-.3-1.7.5-2.6.7-.9.2-1.8.2-2.7-.1-.8-.3-1.2-.8-2.2-.6-.9.2-.8.9-1.1,1.5-.1.2-.2.3-.4.5,0,0,0,0,0,0,0,0-.2,0-.2,0-.7,0-1.3.4-1.5,1-.5,1.2.6,2.5,2,2.2.3.6.7,1.2,1.2,1.7,0,0,.4.3.5.4,0,.1-.4.4-.5.5-.2.1-.3.3-.5.5,0,0-.2.3-.3.4-.1,0-.7-.3-.7-.5,0,0,.4-.2.4-.3.3-.2.3-.5.2-.8-.1-.3-.6-.5-.8-.7-.3-.3-.4-.8-.9-.8-.3,0-.4.2-.6-.2-.3-.6,0-.9-.1-1.4,0-.2-.2-.3-.2-.6,0-.4.1-.5.2-.8.2-.5,0-.7,0-1.1,0-.4.4-.5.6-.9.1-.3,0-.6.2-.9.2-.4.5-.4.7-.7.3-.3.2-.7.6-1,.2-.1.8-.5.7-.8,0,.2.5-.1.7-.2.4-.2.7,0,1-.2.3-.1.5-.5.9-.5.4,0,.7,0,1,0C7.4.3,7.6,0,8,0c.4,0,.6.3.9.3.4,0,.7-.1,1,0,.4,0,.5.4.9.5.3,0,.5,0,.7.1.7.1.6.9,1.3,1-.2.6.3.7.7,1.1.3.3.6.9,1,1,.1,0,.2,0,.2.2,0,.7,0,.5.4,1,.5.6,0,.9.2,1.5,0,.2.2.3.2.6,0,.4-.1.5-.2.8-.2.5.2.9-.1,1.4h0Z"/>
  <path class="st0" d="M15.6,2.5c-.3.3-.6.6-.8.9-.2.1-.5-.4-.6-.5,0-.1-.3-.3-.4-.3-.1,0-.5-.3-.5-.4,0-.1.3-.3.4-.4.2-.2.4-.4.6-.5.1-.2.3-.5.5-.3.1.1.3.4.4.5,0,0,.2.2.3.2.1.1.4.3.5.3.2.2-.2.4-.4.5h0Z"/>
  <path class="st0" d="M13.4,8.9c.2-.7.3-1.5.2-2.2,1.6.2,1.4,2.3-.2,2.2h0Z"/>
  <path class="st0" d="M9.6,12.4c-.2.5-.9.8-1.4.8-.6,0-1.4-.2-1.7-.8l1.1.2c.7,0,1.4,0,2-.2Z"/>
  <path class="st0" d="M12.6,15.9c-2.9.1-5.9,0-8.8,0-.8,0-1.2-.6-1-1.3.2-.9,1-1.8,1.7-2.5.2,2.1,2.5,3.2,4.6,2.7.2,0,.7-.1.6-.4-.1-.3-.5,0-.7,0-1.6.3-3.7-.4-3.9-2.2,0,0,0-.4,0-.4,0,0,.7.4.8.4.4,2.1,4,2.1,4.4,0,.1,0,.8-.4.8-.4,0,0,0,.3,0,.4,0,.7-.5,1.3-1.1,1.8-.2.2,0,.5.3.4.2,0,.6-.5.7-.7.3-.4.5-.9.6-1.5.6.5,1.1,1.1,1.4,1.8.4.8.6,1.6-.4,2h0Z"/>
  <path class="st0" d="M2.1,11.9c-.1,0-.3.2-.4.4-.1.1-.3.5-.4.5-.1,0-.3-.3-.4-.4-.2-.2-.4-.4-.6-.5-.2-.1-.6-.2-.3-.5.1-.1.4-.3.5-.4,0,0,.2-.2.3-.3,0-.1.3-.5.4-.5.2-.1.3.2.5.4.3.3.6.6,1,.8.2.2-.4.4-.5.6h0Z"/>
  <path class="st0" d="M2.6,8.9c-1.6.1-1.8-2.1-.2-2.2-.1.7,0,1.5.2,2.2h0Z"/>
  <path class="st0" d="M12.9,6.4c-.3-.4-.5-.5-.7-1.1-.1-.3-.1-.7-.6-.8-.7-.1-1.1.3-1.7.5-1.2.5-2.6.5-3.7,0-.6-.3-.9-.7-1.7-.5-.5,0-.5.4-.6.8-.1.3-.3.6-.5.9-.2.3-.4.3-.4.7-.1,1.1.5,2.6,1.2,3.4,2.9,3.3,8.4,1.7,9-2.6,0-.5.1-.9-.2-1.3h0ZM6.2,7.8c-.2.2-.7.2-.9,0-.2-.1-.3-.5,0-.5.3,0,.3.2.5.2.1,0,.2-.1.3-.2.3,0,.5.3.2.5h0ZM8.1,8.4c-.3,0-1-.2-.9-.6,0,0,.1-.1.2-.2.3,0,.4.4.9.2.1,0,.2-.2.4-.2,0,0,.2,0,.2.1.1.3-.4.6-.7.6ZM10.8,7.7c-.4.4-1.3.2-1.2-.3,0,0,.1-.1.2-.2.2,0,.3.2.5.2.1,0,.2-.1.3-.1.3,0,.5.2.3.4h0Z"/>
</svg>