<?xml version="1.0" encoding="UTF-8"?>
<svg id="Camada_1" xmlns="http://www.w3.org/2000/svg" version="1.1" xmlns:xlink="http://www.w3.org/1999/xlink" viewBox="0 0 92 24">
  <!-- Generator: Adobe Illustrator 30.2.1, SVG Export Plug-In . SVG Version: 2.1.1 Build 1)  -->
  <defs>
    <style>
      .st0 {
        fill: url(#Gradiente_sem_nome_153);
      }

      .st1 {
        fill: url(#Gradiente_sem_nome_1538);
      }

      .st2 {
        fill: url(#Gradiente_sem_nome_1536);
      }

      .st3 {
        fill: url(#Gradiente_sem_nome_15312);
      }

      .st4 {
        fill: url(#Gradiente_sem_nome_1531);
      }

      .st5 {
        fill: url(#Gradiente_sem_nome_1533);
      }

      .st6 {
        fill: url(#Gradiente_sem_nome_1539);
      }

      .st7 {
        fill: url(#Gradiente_sem_nome_1534);
      }

      .st8 {
        fill: url(#Gradiente_sem_nome_1535);
      }

      .st9 {
        fill: url(#Gradiente_sem_nome_15310);
      }

      .st10 {
        fill: url(#Gradiente_sem_nome_15311);
      }

      .st11 {
        fill: url(#Gradiente_sem_nome_1537);
      }

      .st12 {
        fill: url(#Gradiente_sem_nome_1532);
      }
    </style>
    <linearGradient id="Gradiente_sem_nome_153" data-name="Gradiente sem nome 153" x1=".5" y1="9.4" x2="14.4" y2="9.4" gradientUnits="userSpaceOnUse">
      <stop offset="0" stop-color="#7f0101"/>
      <stop offset=".5" stop-color="#ac0101"/>
      <stop offset="1" stop-color="#430101"/>
    </linearGradient>
    <linearGradient id="Gradiente_sem_nome_1531" data-name="Gradiente sem nome 153" x1="6.9" y1="12.4" x2="26.8" y2="12.4" xlink:href="#Gradiente_sem_nome_153"/>
    <linearGradient id="Gradiente_sem_nome_1532" data-name="Gradiente sem nome 153" x1="18.8" y1="17.3" x2="25.4" y2="17.3" xlink:href="#Gradiente_sem_nome_153"/>
    <linearGradient id="Gradiente_sem_nome_1533" data-name="Gradiente sem nome 153" x1="14.4" y1="19.3" x2="19.3" y2="19.3" xlink:href="#Gradiente_sem_nome_153"/>
    <linearGradient id="Gradiente_sem_nome_1534" data-name="Gradiente sem nome 153" x1="14.9" y1="6.8" x2="19" y2="6.8" xlink:href="#Gradiente_sem_nome_153"/>
    <linearGradient id="Gradiente_sem_nome_1535" data-name="Gradiente sem nome 153" x1="29.7" y1="11.9" x2="43" y2="11.9" xlink:href="#Gradiente_sem_nome_153"/>
    <linearGradient id="Gradiente_sem_nome_1536" data-name="Gradiente sem nome 153" x1="71" y1="12.2" x2="91.5" y2="12.2" xlink:href="#Gradiente_sem_nome_153"/>
    <linearGradient id="Gradiente_sem_nome_1537" data-name="Gradiente sem nome 153" x1="40.6" y1="11.7" x2="53.1" y2="11.7" xlink:href="#Gradiente_sem_nome_153"/>
    <linearGradient id="Gradiente_sem_nome_1538" data-name="Gradiente sem nome 153" x1="64" y1="12" x2="79.7" y2="12" xlink:href="#Gradiente_sem_nome_153"/>
    <linearGradient id="Gradiente_sem_nome_1539" data-name="Gradiente sem nome 153" x1="56.7" y1="14.7" x2="63.9" y2="14.7" xlink:href="#Gradiente_sem_nome_153"/>
    <linearGradient id="Gradiente_sem_nome_15310" data-name="Gradiente sem nome 153" x1="52" y1="15.7" x2="61.4" y2="15.7" xlink:href="#Gradiente_sem_nome_153"/>
    <linearGradient id="Gradiente_sem_nome_15311" data-name="Gradiente sem nome 153" x1="74.9" y1="9.8" x2="77.5" y2="9.8" xlink:href="#Gradiente_sem_nome_153"/>
    <linearGradient id="Gradiente_sem_nome_15312" data-name="Gradiente sem nome 153" x1="84" y1="10.1" x2="85.7" y2="10.1" xlink:href="#Gradiente_sem_nome_153"/>
  </defs>
  <g>
    <path class="st0" d="M8.6,9.8c0,0,0-.1,0-.2l-3.4,1.8-1.3.6c0,0-.2,0-.2,0s0-.2,0-.2l4.5-2.6c0,0,0-.2-.1-.2l-4.6,2.3c0,0-.2,0-.3,0s0-.2,0-.3l4.4-2.5s0,0,.1-.1,0-.1-.1,0l-4.5,2.3c-.1,0-.2,0-.3,0s0-.3,0-.3l3.1-1.8,1.3-.7s.1,0,.1,0h0c0-.1-4.7,2.2-4.7,2.2,0,0-.2,0-.2-.1s0-.2.1-.2l4.4-2.6s0-.2,0-.2l-2.2,1.2-2.4,1.2c0,0-.2,0-.2-.1s0-.2.1-.3l4.3-2.5s0-.1,0-.1-.1,0-.2,0l-4.4,2.2c0,0-.2,0-.2,0s0-.2,0-.2l4.3-2.4c0,0-.2-.1-.3,0l-2.4,1.2-1.9.9c0,0-.2,0-.2,0s0-.2,0-.2l4.1-2.2c-.1,0-.3,0-.4,0L.8,6.7c0,0-.2,0-.3,0s0-.2,0-.3c1.4-1.1,3.7-2.6,5.3-3.3s2.5,0,3.1,1.1l3.5,6.3,1.9,3.4c-.4.2-.8.3-1.2.3-.7.1-1.4.3-2.1.7v-.2c-.4,0-.7,0-.9,0,.2,0,.5.1.5.4s-.2.4-.4.3c-.7,0-.8-.5-1.3-.4s-1.4.5-2.1.7-1.1.5-1.2.2,0-.2,0-.2c.5-.4,1-.8,1.5-1.1l2.1-1.3c.2-.1.3-.2.4-.4-.2,0-.3.1-.5.2l-3.7,1.9c0,0-.2,0-.3,0s0-.2,0-.3c1.4-.9,3.1-1.8,4.3-2.6s0-.1,0-.2-.1,0-.1,0l-1.5.8-3,1.5c0,0-.2,0-.2,0s0-.2,0-.3l4.5-2.6c0,0,0-.2,0-.2l-4.6,2.3c0,0-.2,0-.3,0s0-.2,0-.3l4.5-2.6c0,0,0-.2,0-.2l-4.6,2.3c0,0-.2,0-.2,0s0-.2,0-.3l3-1.7,1.5-.8ZM10.8,9.1l.7,1.3h.2s-2.9-5.5-2.9-5.5c-.2-.5-.5-.9-.8-1.2-.8-.8-1.7-.6-2.6,0h.8c.3-.1.6-.2.9,0s.7.5.9.8c.4.6.7,1.1,1,1.8l1.6,3Z"/>
    <path class="st4" d="M7.2,21.7c-.2-.1-.4-.3-.4-.5s.1-.4.4-.4c.8-.2,1.9-.7,2.4-1.3-.4-1.4,0-2.6,1-3.6s1.5-1.1,2.4-1.3,1.8-.4,2.6-1,.9-.8,1.4-1.2l3-2.9,4.2-4.1,2.2-2.1s.2,0,.3,0,.1.2,0,.3c-.6,1.3-1.2,2.4-1.9,3.6-1.3,2.1-3.3,5.2-5.5,6.3l-1.4.8c-1,.5-1.6,1.3-2,2.3s-.9,2.3-1.8,3.2-2,1.1-3.2.9c-1,.6-2.4,1.2-3.6,1.1ZM23.1,8.6c.2,0,.3,0,.4,0,1.1-1.5,2-3.1,2.9-4.7l.2-.5c-.2.2-.3.5-.5.7l-1.3,2.1-1.7,2.4ZM20.9,9.2c.4-.3.8-.7,1.1-1s0-.2,0-.2-.1,0-.2,0c0,0-1.1.9-.9,1.1ZM18.9,11.6c-.3,0-.4.4-.3.6s.3.3.6.3.4-.3.3-.6-.3-.4-.6-.3ZM9.9,18.3c.2-1.7,1.5-3,3.1-3.4s2-.3,3.1-1.2.7-.7,1.1-1.1,0-.2,0-.3c-.2.2-.4.4-.7.6-.9.9-2,1.4-3.2,1.6s-1.2.2-1.7.5c-1.1.6-1.8,1.6-2,2.8s0,.6,0,.8l.2-.5ZM10.8,18.6c0,.4.4.7.7.8s.8,0,1.2-.2c.9-.5,1.5-1.3,1.7-2.2s0-.9-.4-1.2c.4.7,0,1.7-.5,2.3-.4-.8-.8-1.5-1.4-2.1-.8.4-1.5,1.6-1.3,2.6Z"/>
    <path class="st12" d="M22.8,21.6c-1.4,0-2.6-1.1-2.9-2.3s-.1-1.4,0-2.1,0-1.7-.5-2.4l-.5-.7c.7-.3,1.2-.7,1.7-1.1.7,1.2,1.2,1.9,2.6,2.3,2.1.6,2.8,2.8,2,4.7s-1.3,1.6-2.4,1.6ZM24.7,17.1c0-.6-.4-.8-.8-1,0,.1,0,.2,0,.2.3.3.5.6.7.8ZM23.5,20.1c.4-.3.7-.8.7-1.3,0-.8-.4-1.6-1-2s-1.1-.3-1.6,0-.8.7-.8,1.3.3,1.6.9,2,1.3.5,1.8,0Z"/>
    <path class="st5" d="M19.2,20.7c-.3,1-1.7,1.8-2.8,1.5s-1.5-1.4-2-2.3c1.1-1.1,1.4-2,2-3.6l1.3,1.3c.4.4.8.8,1.2,1.3.4.5.6,1.2.4,1.8Z"/>
    <path class="st7" d="M19,10l-2,1.9c-.4-.8-.7-1.6-.9-2.4-.5-1.9-.8-3.7-1.1-5.6,0-.4-.3-2,0-2.1s.2,0,.3.1l2.8,6.2.9,1.9ZM16.2,8.5c.1,0,.2,0,.3,0-.6-2.2-1-4.3-1.4-6.5,0,.2,0,.4,0,.6.3,2,.6,3.9,1.1,5.8Z"/>
  </g>
  <g>
    <path class="st8" d="M35.9,11.7c-.8,1.8-1.7,3.7-2.2,5.6-.4.1-1,0-1.2-.4s0-.7,0-1.1c1.1-2.9,2.4-5.6,3.9-8.3s0-.3,0-.4c.6-.3,1.3-.6,2-.2-.8,1.3-1.5,2.5-2.1,3.8,1.5-.4,2.7-1,3.8-1.9s1.9-2.1,1.3-3-.6-.5-.9-.5c-2.9-.2-6.5,1.6-8.3,3.7s-1.1,1.3-1.1,2.1v.9c-1-.1-1.4-1.1-1.1-2s.8-1.5,1.4-2c2.4-2,5.3-3.3,8.4-3.6s1.5,0,2.1.3c1,.4,1.4,1.4,1.1,2.4-.6,1.9-2.8,3.1-4.6,3.8.9.1,1.8.4,2.1,1.3s.1,1.6-.2,2.4c-1.2,2.6-4.2,4.3-7,4.7s-1.5,0-2.2-.2c-1-.4-1.4-1.4-1-2.3s.2-.2.2-.2c.4,0,0,1.1.8,1.5s1.1.3,1.7.2c2.1-.4,4-1.5,5.4-3.1s.8-1.3.9-2-.4-1.5-1.2-1.6-1.3,0-2,.2Z"/>
    <path class="st2" d="M71,16.4c0-2.3,3.1-5.6,5-4.2.4-.4,1-.4,1.4,0-.4.6-2.4,3.9-1.8,4.3s1.4-.9,1.6-1.2c.5-1.3,1.2-2.4,2.4-3.2s1-.4,1.4-.3.8.4.9.9-.4,1.2-.9,1.3-.3-.1-.3-.2,0-.2.1-.3l.4-.7c0,0,0-.4,0-.4s-.3,0-.4,0c-1.6,1.1-2.6,3.7-2,4.4s1.6-.3,2-.7c1.3-1.2,1.9-2,2.5-3.7s0-.4,0-.5c.4-.1.9-.2,1.2.1s.1.5,0,.7c-.4.7-1.7,3-1.4,3.6s2-1.3,2.2-1.9c.8-2.3,1.8-4.5,3.3-6.4s1.9-1.8,2.7-1.2,0,1.9-.4,2.5c-1.1,1.9-2.5,3.5-4.2,4.9-.2.5-.6,2.3,0,2.5s1.5-.6,1.9-1c.6-.6,1.2-1.2,1.7-1.9s.2-.1.3,0,.1.3,0,.4c-.8,1.2-3.1,3.9-4.8,3.1s-.8-1-.8-1.7l-.9.9c-.4.4-1,.7-1.5.8s-.9-.2-.9-.7,0-.7,0-1c-.9.9-1.9,1.8-3.3,1.7s-1.2-.5-1.3-1.2c-.6.6-2,1.7-2.7,1s-.2-.8-.2-1.3c-.6.7-1.8,2-2.8,1.3s-.4-.6-.4-.9ZM90.9,7.9c0-.1,0-.3-.2-.3h-.3c-1.4,1.4-2.6,3.9-3.4,5.8,1.4-1.3,3.2-3.7,3.9-5.5ZM75.6,12.7c-1-1.4-4,2.9-3,3.6s2.7-2.9,3-3.6Z"/>
    <path class="st11" d="M48.3,16.2c-.5.5-1.9,1.9-2.8,1.1s-.4-1-.3-1.5c-.8.9-1.9,1.9-3.3,1.8s-1.2-.6-1.2-1.3c-.2-2.5,2.6-5.3,4.2-4.3s.5,1.1.3,1.6c-.5,1.1-1.7,1.6-2.9,1.5-.2.5-.2.9-.2,1.4s.4.7.8.5c.9-.3,2.3-1.7,2.5-2.3.8-2.1,1.6-4.1,2.7-5.9s1-1.6,1.8-2.2,1.4-.9,1.9-.5,0,1.9-.4,2.4c-1.2,2.2-2.7,4-4.5,5.8-.2.4-.7,2-.3,2.3s1.7-1,1.8-1.4c.5-1.3,1.2-2.5,2.5-3.1s1.1-.4,1.6,0,.5.9.3,1.4c-.5,1.1-1.7,1.8-3,1.7-.1.4-.2.9-.2,1.3s.4.7.9.5,1-.5,1.4-.9l.7-.9c0,0,.2-.1.3-.1.7-.1-1,2.5-3.1,2.6s-1.4-.5-1.5-1.4ZM51.3,7.1v-.3c-.1,0-.3,0-.4,0-1.5,1.4-2.9,4.4-3.7,6.3,1.6-1.8,3.2-3.9,4.1-6ZM44.5,12.5c-.5-.3-2,1.5-2.1,2.1,1,.2,2.6-1.8,2.1-2.1ZM52.1,12.4c-.7.1-1.9,1.5-2.1,2.2,1.5,0,2.7-2.3,2.1-2.2Z"/>
    <path class="st1" d="M68.2,12.3c-.7.1-1.2.3-1.9.4.4-1.3,1.2-1.1,2.2-1.4.7-1.5,1.3-3,2.1-4.4-1.8,0-4,.2-5.2,1.8s-.3,2.1-.4,2.4-1.2-.1-1.1-1.3.4-1.5,1-2.1c1.8-1.7,4.6-1.9,7-1.9h3.1c1.5,0,2.9-.2,4.3-.5s0,1.3-1.7,1.6-1.8.2-2.7.2h-2.7c-.9,1.2-1.5,2.6-2.1,4.1,1,0,1.8,0,2.8,0-.2.4-.4.7-.7,1-.9,0-1.7,0-2.6,0l-1.7,4.2c-.3.7-.6,1.3-1,1.8-.6.8-1.8.6-2.3,0,.6-.4,1-.8,1.4-1.4.8-1.4,1.4-2.8,2.1-4.4Z"/>
    <path class="st6" d="M63.9,14.7c-.6,1.1-1.8,2.8-3.3,2.9s-.7-.3-.7-.7v-.7c-.5.7-1.6,1.8-2.6,1.4-1.5-.7.2-4.7,3-5.5s1.1-.1,1.5.3c.4-.4.9-.4,1.4,0-.4.7-2.3,3.8-1.8,4.3.7.4,1.9-1.5,2.2-2s.2-.1.2-.2.2.3.1.4ZM61.4,12.7c-.3-.4-.8-.3-1.1,0-1,.7-1.7,1.7-2,2.8s0,.7.1.8c1,.4,2.8-2.9,3-3.6Z"/>
    <path class="st9" d="M61.3,19c-.8.9-3.2.6-4.3,0l-2.4-1.2c-.7-.3-1.5-.5-2.3-.3s-.5-.5-.3-.7l1.2-1.3,2.5-2.5-1.5-.2c-.2,0-.5.1-.7.2,0-.4.3-.9.6-1.1,1.1.1,2.1.1,3.2,0,.1,0,.3.3.3.5s-.1.4-.3.5c-1.3,1.2-2.6,2.4-3.8,3.6,2.5.2,4.7,3.3,7.4,1.9s.3,0,.4,0,0,.3,0,.4Z"/>
    <path class="st10" d="M77.2,10c-.7.5-2.8,1.3-2.3.7s1.2-.8,1.8-1.9c.2-.2.7,0,.8.3s0,.6-.3.9Z"/>
    <path class="st3" d="M84.5,10.9c-.3,0-.5-.2-.5-.5,0-.6.5-1,1.1-1.1s.4,0,.5.2.1.4,0,.6c-.2.5-.6.8-1.2.9Z"/>
  </g>
</svg>