<?xml version="1.0" encoding="UTF-8"?>
<svg id="Camada_1" xmlns="http://www.w3.org/2000/svg" version="1.1" viewBox="0 0 16 16">
  <!-- Generator: Adobe Illustrator 30.2.1, SVG Export Plug-In . SVG Version: 2.1.1 Build 1)  -->
  <defs>
    <style>
      .st0 {
        fill: #fff;
      }

      .st1 {
        fill: none;
      }
    </style>
  </defs>
  <polygon class="st1" points="7.7 4.5 7.7 4.5 7.7 3.9 7.7 3.9 7.7 4.5"/>
  <path class="st1" d="M2.8,13.3c0,0,.1.2.1.3,0-.1,0-.3-.1-.3-.1,0-.8,0-.9,0,0,0,0,.1,0,.1h0s0-.1,0-.1c.1,0,.8,0,.9,0Z"/>
  <polygon class="st1" points="15 6.7 15 6.7 15 6.7 15 6.7"/>
  <path class="st1" d="M2.3,9.1s0,0,0,0c0,0,0,0,0,0,0,0,0,0,0,0,.1-.1.4-.6.5-.7h0c0,.2-.3.6-.5.7Z"/>
  <path class="st1" d="M8.9,4.5h0c0,.4.3.9.6,1.2h0s0,0,0,0c-.3-.3-.6-.8-.6-1.2Z"/>
  <path class="st1" d="M2.3,11.9s0,0,0,0c0,0,0,0,0,0,0,0,0,0,0,0,.1-.1.4-.6.5-.7h0c0,.2-.3.6-.5.7Z"/>
  <path class="st1" d="M2.3,14.7s0,0,0,0c.1-.1.4-.6.5-.7h0c0,.2-.3.6-.5.7Z"/>
  <path class="st1" d="M12.7,6.7c.5,0,1,0,1.5,0-.5,0-1,0-1.5,0Z"/>
  <path class="st1" d="M15,16.5h0s0,0,0,0c0,0,0,0,0,0Z"/>
  <path class="st0" d="M15.2,12.4h0c.7-.8,1.3-2.1,0-2.9.7-.8,1.2-2.1,0-2.8.7-.8.9-1.6.8-2.5C15.8,1.9,13.8,0,10.7,0,8.8,0,6.9,0,5,0,2.5.1.5,1.7.1,3.6c-.2,1.1-.2,2.2.7,3.1-1.2.7-.7,2,0,2.8-1.2.7-.7,2,0,2.9C.1,12.8,0,13.3,0,14s0,1.1,0,1.7c0,.2.3.3.5.4h.6c.6-.1,1.1-.3,1.5-.6,1.1-.7,1.6-2.3.3-3,.7-.8,1.4-2.2,0-2.9.7-.8,1.3-2.2,0-2.8.5-.6.9-1.3.7-2.1h1.1c.9,0,2.1-.6,2.7-1.1l.4-.4c.6.7,1.5,1.2,2.5,1.5.1,0,.5.1.6.1h1.1c-.2.8.2,1.4.7,2.1-.4.1-.7.6-.8.9-.1.7.3,1.3.8,1.9-.4.2-.7.6-.8.9-.1.7.3,1.3.8,1.9-1.4.7-.8,2.2.2,3,.4.3,1,.5,1.6.6h.6c.2,0,.5-.2.5-.4,0-.6,0-1.2,0-1.7,0-.6-.1-1.1-.8-1.5ZM1.4,7.7s0-.1,0-.1c.1,0,.8,0,.9,0,.2.1.1.5,0,.7,0,.2-.3.6-.5.7,0,0,0,0,0,0,0,0,0,0,0,0,0,0,0,0,0,0-.2-.4-.7-.8-.5-1.3ZM1.4,4.9s0-.1,0-.1c.1,0,.8,0,.9,0,.2.1.1.5,0,.7,0,.2-.3.6-.5.7,0,0,0,0,0,0,0,0,0,0,0,0,0,0,0,0,0,0-.2-.4-.7-.8-.5-1.3ZM1.4,10.5s0,0,0,0h0s0-.1,0-.1c.1,0,.8,0,.9,0,0,0,.1.2.1.3,0,.1,0,.3,0,.4h0c0,.2-.3.6-.5.7,0,0,0,0,0,0,0,0,0,0,0,0,0,0,0,0,0,0-.2-.4-.7-.8-.5-1.3ZM2.6,13.6c0,.5-.5,1.2-1.2,1.4h0v-1.4c0,0,.2-.3.3-.3.4-.2.9,0,.9.4h0ZM7.4,1.6h0c0,.4-.3.9-.6,1.2-1.3,1.4-3.5.9-5.4,1,.2-1.2,1.4-2.3,2.9-2.7,1-.3,2.1-.2,3.1-.2h0s0,0,0,0v.6ZM14.6,8.3h0c0,.2-.3.6-.5.7,0,0,0,0,0,0-.2-.4-.7-.8-.5-1.3,0,0,0-.1,0-.1.1,0,.8,0,.9,0,.2.1.1.5,0,.7ZM14.6,11.1h0c0,.2-.3.6-.5.7,0,0,0,0,0,0-.2-.4-.7-.8-.5-1.3,0,0,0-.1,0-.1.1,0,.8,0,.9,0,.2.1.1.5,0,.7ZM14.6,5.5h0c0,.2-.3.6-.5.7,0,0,0,0,0,0-.2-.4-.7-.8-.5-1.3,0,0,0-.1,0-.1.1,0,.8,0,.9,0,.2.1.1.5,0,.7ZM12.4,3.8c-1.2,0-2.4-.1-3.2-1h0c-.3-.3-.6-.8-.6-1.2h0v-.6h0c.8,0,1.6,0,2.4,0,1.9.2,3.3,1.4,3.6,2.8h0s0,0,0,0c0,0,0,0,0,0h0c-.2,0-.5,0-.7,0-.5,0-1,0-1.5,0ZM14.6,13.6h0v1.4h0s0,0,0,0c-.7-.2-1.2-.8-1.2-1.4,0-.4.5-.6.9-.4,0,0,.2.2.2.2,0,0,0,0,0,0h0s0,0,0,0Z"/>
  <polygon points="7.7 3.9 7.7 3.9 7.7 3.9 7.7 3.9"/>
</svg>